<?xml version="1.0" encoding="iso-8859-1"?>
<!-- Generator: Adobe Illustrator 19.0.0, SVG Export Plug-In . SVG Version: 6.00 Build 0)  -->
<svg version="1.1" id="Capa_1" xmlns="http://www.w3.org/2000/svg" xmlns:xlink="http://www.w3.org/1999/xlink" x="0px" y="0px"
	 viewBox="0 0 463 463" style="enable-background:new 0 0 463 463;" xml:space="preserve">
<g>
	<path d="M191.5,32c-4.142,0-7.5,3.357-7.5,7.5v32c0,4.143,3.358,7.5,7.5,7.5s7.5-3.357,7.5-7.5v-32C199,35.357,195.642,32,191.5,32
		z"/>
	<path d="M271.5,32c-4.142,0-7.5,3.357-7.5,7.5v32c0,4.143,3.358,7.5,7.5,7.5s7.5-3.357,7.5-7.5v-32C279,35.357,275.642,32,271.5,32
		z"/>
	<path d="M311.5,120H311V15.5C311,6.953,304.047,0,295.5,0h-128C158.953,0,152,6.953,152,15.5V120h-0.5
		c-12.958,0-23.5,10.542-23.5,23.5v16c0,10.336,6.71,19.128,16,22.266V279.5c0,37.148,23.272,68.959,56,81.631V407.5
		c0,14.785,10.241,27.216,24,30.591V455.5c0,4.143,3.358,7.5,7.5,7.5s7.5-3.357,7.5-7.5v-17.409c13.759-3.374,24-15.806,24-30.591
		v-46.369c32.728-12.672,56-44.483,56-81.631v-97.734c9.29-3.138,16-11.93,16-22.266v-16C335,130.542,324.458,120,311.5,120z
		 M167,15.5c0-0.275,0.224-0.5,0.5-0.5h128c0.276,0,0.5,0.225,0.5,0.5V120H167V15.5z M248,407.5c0,9.098-7.402,16.5-16.5,16.5
		s-16.5-7.402-16.5-16.5v-42.067c5.346,1.024,10.86,1.567,16.5,1.567s11.154-0.543,16.5-1.567V407.5z M231.5,352
		c-39.977,0-72.5-32.523-72.5-72.5V183h145v96.5C304,319.477,271.477,352,231.5,352z M320,159.5c0,4.687-3.813,8.5-8.5,8.5h-160
		c-4.687,0-8.5-3.813-8.5-8.5v-16c0-4.687,3.813-8.5,8.5-8.5h160c4.687,0,8.5,3.813,8.5,8.5V159.5z"/>
</g>
<g>
</g>
<g>
</g>
<g>
</g>
<g>
</g>
<g>
</g>
<g>
</g>
<g>
</g>
<g>
</g>
<g>
</g>
<g>
</g>
<g>
</g>
<g>
</g>
<g>
</g>
<g>
</g>
<g>
</g>
</svg>
